<?xml version="1.0" standalone="no"?>
<!DOCTYPE svg PUBLIC "-//W3C//DTD SVG 20010904//EN"
 "http://www.w3.org/TR/2001/REC-SVG-20010904/DTD/svg10.dtd">
<svg version="1.0" xmlns="http://www.w3.org/2000/svg"
 width="700.000000pt" height="700.000000pt" viewBox="0 0 700.000000 700.000000"
 preserveAspectRatio="xMidYMid meet">
<metadata>
Created by potrace 1.14, written by Peter Selinger 2001-2017
</metadata>
<g transform="translate(0.000000,700.000000) scale(0.100000,-0.100000)"
fill="#000000" stroke="none">
<path d="M2459 6996 c-2 -2 -35 -7 -74 -10 -88 -7 -110 -11 -266 -41 -395 -78
-771 -252 -1109 -514 -75 -58 -351 -324 -390 -376 -8 -11 -38 -49 -66 -85 -57
-72 -129 -179 -192 -282 -38 -64 -152 -289 -152 -302 0 -3 -9 -25 -19 -49 -34
-75 -110 -316 -125 -397 -2 -14 -9 -45 -14 -70 -6 -25 -14 -70 -17 -100 -4
-30 -9 -58 -11 -61 -16 -26 -19 -428 -19 -2274 l0 -2110 37 -75 c63 -128 172
-215 303 -240 44 -8 613 -10 2160 -8 1155 2 2109 6 2120 10 11 3 47 9 80 12
51 6 148 24 230 43 11 2 31 6 45 9 61 12 293 84 335 104 106 49 176 80 182 80
3 0 56 28 117 61 160 88 293 178 431 293 81 67 281 266 330 328 22 28 45 56
50 62 25 26 125 168 177 251 182 291 326 677 363 971 4 27 8 56 10 64 17 64
20 415 20 2275 l0 2110 -33 70 c-50 107 -124 177 -242 230 -45 20 -61 20
-2151 22 -1158 2 -2108 1 -2110 -1z"/>
</g>
</svg>
